<svg xmlns="http://www.w3.org/2000/svg" viewBox="0 0 650.25 563.16"><defs><style>.cls-1{fill:none;stroke:#75ae8a;stroke-linecap:round;stroke-miterlimit:10;stroke-width:20px;}.cls-2{fill:#75ae8a;}.cls-3{fill:#e05858;}.cls-4{font-size:114.1px;fill:#747c7d;font-family:AristotelicaDisplayTrial-DmBd, Aristotelica Display Trial;font-weight:700;}.cls-5{font-size:95.08px;fill:#4f6366;}.cls-6{letter-spacing:0em;}.cls-7{letter-spacing:-0.01em;}.cls-8{letter-spacing:0em;}</style></defs><title>home+stethoscope</title><g id="home"><polyline class="cls-1" points="348.94 99.96 405.59 56.92 500.98 130.01 540.85 160.56"/><line class="cls-1" x1="496.94" y1="287.04" x2="496.94" y2="130.01"/></g><g id="stethoscope"><path class="cls-2" d="M7129.49,6949a70.27,70.27,0,1,1-112.49,0l-16.26-16.26a93.11,93.11,0,1,0,145,0Z" transform="translate(-6872.31 -6914.84)"/><path class="cls-2" d="M7239,7129.59a94.41,94.41,0,0,1-170.14-56.38c0-2.07.09-4.11.23-6.15h-22q-.17,3.06-.16,6.15a116.37,116.37,0,0,0,211.55,66.95A36.73,36.73,0,0,1,7239,7129.59Z" transform="translate(-6872.31 -6914.84)"/><path class="cls-2" d="M7265.5,7067.06a36.89,36.89,0,1,0,36.89,36.89A36.89,36.89,0,0,0,7265.5,7067.06Zm0,65.45a28.56,28.56,0,1,1,28.55-28.56A28.56,28.56,0,0,1,7265.5,7132.51Z" transform="translate(-6872.31 -6914.84)"/><circle class="cls-3" cx="393.19" cy="189.12" r="19.77"/><circle class="cls-2" cx="268.03" cy="25.75" r="25.75"/><circle class="cls-2" cx="138.03" cy="25.75" r="25.75"/></g><g id="KHD_2"><text class="cls-4" transform="translate(0 440.36)">Kisumu Home<tspan class="cls-5"><tspan x="164.2" y="91">Doc</tspan><tspan class="cls-6" x="319.51" y="91">t</tspan><tspan x="364.3" y="91">o</tspan><tspan class="cls-7" x="413.79" y="91">r</tspan><tspan class="cls-8" x="447.78" y="91">s</tspan></tspan></text></g></svg>