<svg xmlns="http://www.w3.org/2000/svg" viewBox="0 0 1080 1080"><defs><style>.cls-1{fill:#75ae8a;}.cls-2{fill:#e05858;}.cls-3{fill:#747c7d;}.cls-4{fill:#4f6366;}</style></defs><title>home+stethoscope_2</title><g id="home"><path class="cls-1" d="M759.74,408,618.42,299.68,555.7,347.33a10,10,0,1,0,12.09,15.93l50.58-38.42,81.37,62.35V542.38a10,10,0,0,0,20,0V402.51l27.84,21.33A10,10,0,1,0,759.74,408Z"/></g><g id="stethoscope"><path class="cls-1" d="M606,407.56a36.88,36.88,0,0,0-26.51,62.53A94.41,94.41,0,0,1,410,424.6c1.25,0,2.51.08,3.77.08a93.08,93.08,0,0,0,86.72-126.95,25.74,25.74,0,1,0-21,9.07A70.27,70.27,0,1,1,348,306.67a23.7,23.7,0,0,0,2.81.16A25.76,25.76,0,1,0,328.57,294a93.11,93.11,0,0,0,59.06,127A116.37,116.37,0,0,0,599,480.66a36.4,36.4,0,0,0,7,.68,36.89,36.89,0,0,0,0-73.78ZM596.08,480l.12,0Zm-10.19-4.6.05,0Zm4.87,2.67.13.06ZM606,473a28.56,28.56,0,1,1,28.55-28.56A28.56,28.56,0,0,1,606,473Z"/><circle class="cls-2" cx="606" cy="444.45" r="19.77"/></g><g id="KHD"><path class="cls-3" d="M232.09,658.73l36.11-34.35a6.25,6.25,0,0,1,2-1.28,5.9,5.9,0,0,1,2.23-.43,6,6,0,0,1,2.42.51,7.13,7.13,0,0,1,2.14,1.49,5.73,5.73,0,0,1,1.25,2,5.49,5.49,0,0,1,.32,2.31,7,7,0,0,1-.6,2.34,6.54,6.54,0,0,1-1.48,2.06l-26,24.59,26.59,27.09a5.89,5.89,0,0,1,1.39,2.14,6.75,6.75,0,0,1,.43,2.37,5.76,5.76,0,0,1-.48,2.31,6.72,6.72,0,0,1-1.4,2,6.06,6.06,0,0,1-2,1.34,5.9,5.9,0,0,1-2.2.43,5.73,5.73,0,0,1-2.22-.46,6,6,0,0,1-2-1.43l-27-27.44-9.47,9v14.2a6.12,6.12,0,0,1-.48,2.4,5.81,5.81,0,0,1-1.34,1.94,7,7,0,0,1-2,1.28,6.17,6.17,0,0,1-4.82,0,6.38,6.38,0,0,1-2-1.28A5.88,5.88,0,0,1,220.2,692a6,6,0,0,1-.49-2.4V628.78a6,6,0,0,1,1.8-4.34,6.38,6.38,0,0,1,2-1.28,6.17,6.17,0,0,1,4.82,0,7,7,0,0,1,2,1.28,5.78,5.78,0,0,1,1.34,1.91,6.06,6.06,0,0,1,.48,2.43Z"/><path class="cls-3" d="M287.66,630a6.72,6.72,0,0,1,.54-2.68,6.69,6.69,0,0,1,3.62-3.62,6.54,6.54,0,0,1,5.25,0,7.2,7.2,0,0,1,2.2,1.45,6.75,6.75,0,0,1,2,4.85,6.41,6.41,0,0,1-.54,2.6,6.83,6.83,0,0,1-1.48,2.14,7.2,7.2,0,0,1-2.2,1.45,6.65,6.65,0,0,1-5.25,0,6.83,6.83,0,0,1-2.17-1.45,6.92,6.92,0,0,1-1.45-2.14A6.41,6.41,0,0,1,287.66,630Zm13,59.5a6.22,6.22,0,0,1-1.79,4.37,6.21,6.21,0,0,1-1.94,1.31,6.17,6.17,0,0,1-4.82,0,6.48,6.48,0,0,1-2-1.31,5.89,5.89,0,0,1-1.34-2,6.13,6.13,0,0,1-.49-2.4V648.8a5.62,5.62,0,0,1,.52-2.37,6.9,6.9,0,0,1,1.37-2,6.34,6.34,0,0,1,2-1.34,6.27,6.27,0,0,1,2.46-.48,5.83,5.83,0,0,1,2.39.48,6.11,6.11,0,0,1,1.91,1.34,6.12,6.12,0,0,1,1.74,4.34Z"/><path class="cls-3" d="M325.71,673.39q-2.46-1-5.08-2.28a23,23,0,0,1-4.79-3.06,15.17,15.17,0,0,1-3.57-4.27,12,12,0,0,1-1.39-6,14.5,14.5,0,0,1,5.39-11.55,18,18,0,0,1,6-3.19,25,25,0,0,1,7.64-1.12,34.28,34.28,0,0,1,5,.38,24.52,24.52,0,0,1,4.88,1.19,16.6,16.6,0,0,1,4.14,2.17,9.2,9.2,0,0,1,2.79,3.22,6.34,6.34,0,0,1,.6,3.63,5.41,5.41,0,0,1-1.28,2.93,5.73,5.73,0,0,1-1.86,1.43,5.09,5.09,0,0,1-2.25.52,5.31,5.31,0,0,1-2-.46c-.79-.5-1.53-.93-2.19-1.31a13.78,13.78,0,0,0-2.06-1,11.33,11.33,0,0,0-2.22-.6,15.21,15.21,0,0,0-2.65-.2,12.38,12.38,0,0,0-5.62,1,3.23,3.23,0,0,0-1.91,3,2.43,2.43,0,0,0,.71,1.8,6.73,6.73,0,0,0,1.94,1.28,21.09,21.09,0,0,0,3,1.08l3.79,1.14a56.76,56.76,0,0,1,6.42,2.4,22.31,22.31,0,0,1,5.36,3.34,15.07,15.07,0,0,1,3.68,4.62A13.76,13.76,0,0,1,349.5,680a14.52,14.52,0,0,1-1.46,6.42,16.4,16.4,0,0,1-4,5.22,19.31,19.31,0,0,1-6.1,3.51,22.76,22.76,0,0,1-7.76,1.28,33.4,33.4,0,0,1-5.56-.49,25,25,0,0,1-5.71-1.65,22,22,0,0,1-5.1-3,14.1,14.1,0,0,1-3.77-4.6,7.42,7.42,0,0,1-1-3.5,5.55,5.55,0,0,1,.72-2.86,5,5,0,0,1,2-1.91,6,6,0,0,1,2.83-.68,7.6,7.6,0,0,1,2.85.6,10.34,10.34,0,0,1,3,1.91,8.89,8.89,0,0,0,1.71,1.62,12.76,12.76,0,0,0,2.28,1.37,12.93,12.93,0,0,0,2.71.94,13.2,13.2,0,0,0,3.05.35,10.94,10.94,0,0,0,2.68-.32,8.44,8.44,0,0,0,2.23-.88,5,5,0,0,0,1.54-1.37,3.06,3.06,0,0,0,.57-1.83,2.8,2.8,0,0,0-1.26-2.19,15.31,15.31,0,0,0-3.05-1.86,33.89,33.89,0,0,0-3.76-1.51Z"/><path class="cls-3" d="M370.72,670.08a13.94,13.94,0,0,0,1.06,5.45,13.71,13.71,0,0,0,2.91,4.42,13.57,13.57,0,0,0,4.39,3,13.77,13.77,0,0,0,5.45,1.08,12.23,12.23,0,0,0,5.3-1.11,11.77,11.77,0,0,0,4-3,13.75,13.75,0,0,0,2.51-4.47,16.74,16.74,0,0,0,.88-5.48V648.8a5.59,5.59,0,0,1,.52-2.42,6,6,0,0,1,1.39-1.94,6.9,6.9,0,0,1,2-1.32,6.11,6.11,0,0,1,2.39-.48,5.85,5.85,0,0,1,2.4.48,6.34,6.34,0,0,1,1.91,1.32,5.88,5.88,0,0,1,1.29,1.94,6.39,6.39,0,0,1,.45,2.42v20.94a28.75,28.75,0,0,1-1.85,10.32,26.43,26.43,0,0,1-5.17,8.48,24.27,24.27,0,0,1-7.92,5.73,24,24,0,0,1-10.1,2.11,25.24,25.24,0,0,1-10.24-2.08,26.13,26.13,0,0,1-8.3-5.68,26.79,26.79,0,0,1-5.59-8.39A25.59,25.59,0,0,1,358.34,670V648.8a5.88,5.88,0,0,1,.49-2.42,6.18,6.18,0,0,1,8.07-3.26,6.63,6.63,0,0,1,2,1.32,5.94,5.94,0,0,1,1.82,4.36Z"/><path class="cls-3" d="M431.88,689.65a5.94,5.94,0,0,1-6.05,6.05,6.13,6.13,0,0,1-2.4-.49,7.15,7.15,0,0,1-2-1.28A5.9,5.9,0,0,1,420,692a5.64,5.64,0,0,1-.51-2.37V662.78a19.65,19.65,0,0,1,1.68-8.07,20.91,20.91,0,0,1,4.59-6.62,22.09,22.09,0,0,1,6.76-4.48,21,21,0,0,1,16.49.06,22.34,22.34,0,0,1,6.88,4.67,22,22,0,0,1,6.93-4.67,20.85,20.85,0,0,1,8.41-1.72,20.61,20.61,0,0,1,8.1,1.6,21.31,21.31,0,0,1,6.62,4.39,22.18,22.18,0,0,1,4.57,6.51,20.83,20.83,0,0,1,1.88,7.93,1.13,1.13,0,0,0,0,.25,1.38,1.38,0,0,1,0,.26v26.76a6,6,0,0,1-1.8,4.28,6.6,6.6,0,0,1-1.91,1.28,5.77,5.77,0,0,1-2.34.49,6.35,6.35,0,0,1-2.43-.49,6.63,6.63,0,0,1-2-1.28A6.13,6.13,0,0,1,480.6,692a5.64,5.64,0,0,1-.51-2.37V662.72a8.39,8.39,0,0,0-.8-3.37,8.65,8.65,0,0,0-2-2.65,9.29,9.29,0,0,0-2.8-1.74,9.32,9.32,0,0,0-9.75,1.91,8.7,8.7,0,0,0-1.94,2.74,8.07,8.07,0,0,0-.72,3.4v26.64a5.94,5.94,0,0,1-6,6.05,6.13,6.13,0,0,1-2.4-.49,7,7,0,0,1-2-1.28,5.9,5.9,0,0,1-1.4-1.91,5.65,5.65,0,0,1-.52-2.37V662.78a8.59,8.59,0,0,0-.77-3.4,8.23,8.23,0,0,0-1.91-2.68,8.88,8.88,0,0,0-2.79-1.74,9.29,9.29,0,0,0-3.43-.63,9.09,9.09,0,0,0-6.3,2.49,8.85,8.85,0,0,0-1.94,2.71,7.83,7.83,0,0,0-.71,3.3Z"/><path class="cls-3" d="M514.77,670.08a13.94,13.94,0,0,0,1.06,5.45,13.71,13.71,0,0,0,2.91,4.42,13.57,13.57,0,0,0,4.39,3,13.77,13.77,0,0,0,5.45,1.08,12.23,12.23,0,0,0,5.3-1.11,11.77,11.77,0,0,0,4-3,13.75,13.75,0,0,0,2.51-4.47,16.74,16.74,0,0,0,.88-5.48V648.8a5.59,5.59,0,0,1,.52-2.42,6,6,0,0,1,1.39-1.94,6.9,6.9,0,0,1,2-1.32,6.11,6.11,0,0,1,2.39-.48,5.85,5.85,0,0,1,2.4.48,6.34,6.34,0,0,1,1.91,1.32,5.71,5.71,0,0,1,1.28,1.94,6.21,6.21,0,0,1,.46,2.42v20.94a28.75,28.75,0,0,1-1.85,10.32,26.43,26.43,0,0,1-5.17,8.48,24.2,24.2,0,0,1-7.93,5.73,23.94,23.94,0,0,1-10.09,2.11,25.24,25.24,0,0,1-10.24-2.08,26.13,26.13,0,0,1-8.3-5.68,27,27,0,0,1-5.6-8.39A25.76,25.76,0,0,1,502.39,670V648.8a5.88,5.88,0,0,1,.49-2.42,6.18,6.18,0,0,1,8.07-3.26,6.46,6.46,0,0,1,2,1.32,5.89,5.89,0,0,1,1.35,1.94,6,6,0,0,1,.48,2.42Z"/><path class="cls-3" d="M603.65,653.08h38.57v-24.3a5.75,5.75,0,0,1,.51-2.43,6,6,0,0,1,1.37-1.91,6.78,6.78,0,0,1,2-1.28,6.06,6.06,0,0,1,2.45-.49,5.76,5.76,0,0,1,2.4.49,6.6,6.6,0,0,1,1.91,1.28,5.49,5.49,0,0,1,1.28,1.91,6.22,6.22,0,0,1,.46,2.43v60.81a6,6,0,0,1-.49,2.4,5.88,5.88,0,0,1-1.31,1.94,6.48,6.48,0,0,1-1.94,1.28,6,6,0,0,1-2.42.49,6.13,6.13,0,0,1-2.4-.49,6.78,6.78,0,0,1-2-1.28A5.81,5.81,0,0,1,642.7,692a6.12,6.12,0,0,1-.48-2.4V665.52H603.65v24.07a6.12,6.12,0,0,1-.48,2.4,5.81,5.81,0,0,1-1.34,1.94,6.9,6.9,0,0,1-2,1.28,6.17,6.17,0,0,1-4.82,0,6.38,6.38,0,0,1-2-1.28,5.88,5.88,0,0,1-1.31-1.94,6,6,0,0,1-.49-2.4V628.78a6,6,0,0,1,1.8-4.34,6.38,6.38,0,0,1,2-1.28,6.17,6.17,0,0,1,4.82,0,6.9,6.9,0,0,1,2,1.28,5.78,5.78,0,0,1,1.34,1.91,6.06,6.06,0,0,1,.48,2.43Z"/><path class="cls-3" d="M664,669.17a26,26,0,0,1,2.17-10.59,27.79,27.79,0,0,1,14.52-14.49A26.28,26.28,0,0,1,691.22,642a26.57,26.57,0,0,1,10.61,2.14,27.18,27.18,0,0,1,14.44,14.49,27.53,27.53,0,0,1,0,21.14,27.46,27.46,0,0,1-5.79,8.67,27.15,27.15,0,0,1-8.65,5.85,26.4,26.4,0,0,1-10.61,2.14,26.11,26.11,0,0,1-10.52-2.14,27.7,27.7,0,0,1-14.52-14.52A26,26,0,0,1,664,669.17Zm12.38,0a14.33,14.33,0,0,0,1.17,5.73,15,15,0,0,0,7.9,7.93,14.84,14.84,0,0,0,11.55,0,14.69,14.69,0,0,0,4.71-3.19,14.91,14.91,0,0,0,3.14-4.74,14.9,14.9,0,0,0-3.14-16.23A15,15,0,0,0,697,655.5a14.76,14.76,0,0,0-11.52,0,15.34,15.34,0,0,0-4.74,3.17,14.85,14.85,0,0,0-3.19,4.71A14.4,14.4,0,0,0,676.39,669.17Z"/><path class="cls-3" d="M738.12,689.65a5.94,5.94,0,0,1-6,6.05,6.13,6.13,0,0,1-2.4-.49,7.15,7.15,0,0,1-2-1.28,5.9,5.9,0,0,1-1.4-1.91,5.64,5.64,0,0,1-.51-2.37V662.78a19.65,19.65,0,0,1,1.68-8.07,20.91,20.91,0,0,1,4.59-6.62,22.09,22.09,0,0,1,6.76-4.48,21,21,0,0,1,16.49.06,22.34,22.34,0,0,1,6.88,4.67,22,22,0,0,1,6.93-4.67,20.85,20.85,0,0,1,8.41-1.72,20.61,20.61,0,0,1,8.1,1.6,21.31,21.31,0,0,1,6.62,4.39,22.18,22.18,0,0,1,4.57,6.51,20.83,20.83,0,0,1,1.88,7.93,1.13,1.13,0,0,0,0,.25,1.38,1.38,0,0,1,0,.26v26.76a6,6,0,0,1-1.8,4.28,6.6,6.6,0,0,1-1.91,1.28,5.77,5.77,0,0,1-2.34.49,6.35,6.35,0,0,1-2.43-.49,6.63,6.63,0,0,1-2-1.28,6.13,6.13,0,0,1-1.37-1.91,5.64,5.64,0,0,1-.51-2.37V662.72a8.39,8.39,0,0,0-.8-3.37,8.65,8.65,0,0,0-2-2.65,9.29,9.29,0,0,0-2.8-1.74,9.32,9.32,0,0,0-9.75,1.91,8.7,8.7,0,0,0-1.94,2.74,8.07,8.07,0,0,0-.72,3.4v26.64a5.94,5.94,0,0,1-6,6.05,6.13,6.13,0,0,1-2.4-.49,7,7,0,0,1-2-1.28,5.9,5.9,0,0,1-1.4-1.91,5.65,5.65,0,0,1-.52-2.37V662.78a8.59,8.59,0,0,0-.77-3.4,8.23,8.23,0,0,0-1.91-2.68A8.88,8.88,0,0,0,750.5,655a9.29,9.29,0,0,0-3.43-.63,9.09,9.09,0,0,0-6.3,2.49,8.85,8.85,0,0,0-1.94,2.71,7.68,7.68,0,0,0-.71,3.3Z"/><path class="cls-3" d="M819.87,674.7a13.65,13.65,0,0,0,2.08,3.85,13.9,13.9,0,0,0,3.11,3,14.09,14.09,0,0,0,3.88,1.88,14.84,14.84,0,0,0,4.45.66q5.88,0,9.24-3.08a8.42,8.42,0,0,1,2.23-1.17,6.23,6.23,0,0,1,2-.37,5.06,5.06,0,0,1,2.85.82,6.9,6.9,0,0,1,2.06,2.14,6.69,6.69,0,0,1,.82,2,5.72,5.72,0,0,1,.12,2.14,6.69,6.69,0,0,1-.69,2.14,5.89,5.89,0,0,1-1.62,1.91,24.84,24.84,0,0,1-2.85,2.2,19.45,19.45,0,0,1-3.68,1.85,26.86,26.86,0,0,1-4.68,1.28,31.41,31.41,0,0,1-5.85.49,26.47,26.47,0,0,1-10.61-2.14,27.46,27.46,0,0,1-8.67-5.85,28,28,0,0,1-5.88-8.64,26.95,26.95,0,0,1,0-21.19,27.48,27.48,0,0,1,14.55-14.47,27.29,27.29,0,0,1,21.14,0,28.1,28.1,0,0,1,8.67,5.73,27.16,27.16,0,0,1,5.93,8.53,26,26,0,0,1,2.25,10.5,5.67,5.67,0,0,1-1.68,4.25,6.09,6.09,0,0,1-4.42,1.62Zm28.18-10.27a12.88,12.88,0,0,0-2-4.22,13,13,0,0,0-3.22-3.19,14,14,0,0,0-4.22-2,17.5,17.5,0,0,0-5-.69,16.51,16.51,0,0,0-4.93.72,14,14,0,0,0-4.16,2.05,13.56,13.56,0,0,0-3.17,3.2,13,13,0,0,0-1.94,4.13Z"/><path class="cls-4" d="M387.89,786.7a5,5,0,0,1-2-.41,5.07,5.07,0,0,1-1.64-1.07,4.85,4.85,0,0,1-1.1-1.61,5.07,5.07,0,0,1-.4-2V730.93a5,5,0,0,1,.4-2,5.22,5.22,0,0,1,1.1-1.62,4.76,4.76,0,0,1,1.64-1.07,5.34,5.34,0,0,1,2-.38h16.69a30.06,30.06,0,0,1,8.11,1.1A30.76,30.76,0,0,1,420,730a32,32,0,0,1,6.28,4.8A31.52,31.52,0,0,1,431.2,741a29.33,29.33,0,0,1,3.16,7.27,29,29,0,0,1,1.12,8.08A28.42,28.42,0,0,1,433,768.15a31.12,31.12,0,0,1-6.7,9.65,31.75,31.75,0,0,1-9.85,6.52,30.22,30.22,0,0,1-11.88,2.38H387.89Zm5.18-50.54v40.22h11.75a19.25,19.25,0,0,0,7.91-1.64,21.77,21.77,0,0,0,6.47-4.37,20.4,20.4,0,0,0,4.37-6.35,18.59,18.59,0,0,0,1.6-7.56,19.09,19.09,0,0,0-1.6-7.66,21,21,0,0,0-4.37-6.46,21.75,21.75,0,0,0-6.47-4.49,18.66,18.66,0,0,0-7.91-1.69Z"/><path class="cls-4" d="M439.85,764.59a21.75,21.75,0,0,1,1.81-8.82,23.5,23.5,0,0,1,4.9-7.2,23.1,23.1,0,0,1,7.2-4.88,21.8,21.8,0,0,1,8.77-1.78,22,22,0,0,1,8.84,1.78,22.65,22.65,0,0,1,12,12.08,22.9,22.9,0,0,1,0,17.61,22.51,22.51,0,0,1-12,12.1,22,22,0,0,1-8.84,1.79,21.8,21.8,0,0,1-8.77-1.79,23.07,23.07,0,0,1-7.2-4.87,23.4,23.4,0,0,1-4.9-7.23A21.74,21.74,0,0,1,439.85,764.59Zm10.32,0a12,12,0,0,0,1,4.78,12.54,12.54,0,0,0,6.58,6.6,11.71,11.71,0,0,0,4.8,1,11.92,11.92,0,0,0,4.83-1,12.1,12.1,0,0,0,3.92-2.66,12.32,12.32,0,0,0,2.61-3.94,12.11,12.11,0,0,0,1-4.78,12.25,12.25,0,0,0-1-4.83,12.12,12.12,0,0,0-2.61-3.92,12.53,12.53,0,0,0-3.92-2.64,12.08,12.08,0,0,0-4.83-1,12,12,0,0,0-4.78,1,12.74,12.74,0,0,0-3.94,2.64,12.28,12.28,0,0,0-3.64,8.75Z"/><path class="cls-4" d="M499.61,764.59a11.21,11.21,0,0,0,.93,4.42,13.56,13.56,0,0,0,2.52,3.92,13.15,13.15,0,0,0,3.73,2.83,10.43,10.43,0,0,0,4.61,1.14,14.55,14.55,0,0,0,4.54-.64,12.14,12.14,0,0,0,4-2.31,16.26,16.26,0,0,1,2.12-1.49,4.89,4.89,0,0,1,2.54-.69,4.79,4.79,0,0,1,1.71.35,6.78,6.78,0,0,1,1.86,1.17,4.5,4.5,0,0,1,1.21,1.69,4.9,4.9,0,0,1,.38,2,5.75,5.75,0,0,1-.47,2.12,7.13,7.13,0,0,1-1.36,2,19.59,19.59,0,0,1-7,4.57,23.65,23.65,0,0,1-8.54,1.57,23.25,23.25,0,0,1-16.25-6.52,22.4,22.4,0,0,1-5-7.15,21.88,21.88,0,0,1-1.81-8.87.11.11,0,0,0,.05-.09h-.05a22.26,22.26,0,0,1,1.81-8.92,22.49,22.49,0,0,1,5-7.22,23.14,23.14,0,0,1,16.25-6.59,24.48,24.48,0,0,1,8.54,1.5,18.76,18.76,0,0,1,7,4.49,6.65,6.65,0,0,1,1.38,2,5.6,5.6,0,0,1,.5,2.14,4.93,4.93,0,0,1-.4,2,5,5,0,0,1-1.29,1.73,6.39,6.39,0,0,1-1.81,1.14,4.4,4.4,0,0,1-1.66.34,4.87,4.87,0,0,1-2.54-.69,18.09,18.09,0,0,1-2.17-1.5,14.32,14.32,0,0,0-3.94-2.19,12.66,12.66,0,0,0-4.09-.66,11.22,11.22,0,0,0-4.66,1,12.26,12.26,0,0,0-3.9,2.71,13.54,13.54,0,0,0-2.66,3.94,11.22,11.22,0,0,0-1,4.66Z"/><path class="cls-4" d="M547.2,742.48h16.55a5.13,5.13,0,0,1,2,.41,5.42,5.42,0,0,1,1.67,1.11,5.3,5.3,0,0,1,1.11,1.67,5.13,5.13,0,0,1,.41,2,4.83,4.83,0,0,1-.41,2,5.08,5.08,0,0,1-1.11,1.62,5.36,5.36,0,0,1-1.67,1.09,5.13,5.13,0,0,1-2,.41H547.2v12a11.61,11.61,0,0,0,1,4.73,12.45,12.45,0,0,0,2.64,3.85,12.18,12.18,0,0,0,3.92,2.59,12.33,12.33,0,0,0,4.82,1,13.35,13.35,0,0,0,4.23-.64,10.38,10.38,0,0,0,3.62-2.12,7.77,7.77,0,0,1,1.8-1.26,4.7,4.7,0,0,1,2.1-.5,4.62,4.62,0,0,1,3.18,1.29,4.11,4.11,0,0,1,1.21,1.8,5.49,5.49,0,0,1,.29,2.17,6.15,6.15,0,0,1-.55,2.16,5.63,5.63,0,0,1-1.33,1.85,18.93,18.93,0,0,1-6.56,4.16,23.12,23.12,0,0,1-16.8-.35,23.32,23.32,0,0,1-7.21-4.8,22.55,22.55,0,0,1-4.87-7.16,21.9,21.9,0,0,1-1.78-8.82V734.21a5,5,0,0,1,.42-2,5.59,5.59,0,0,1,1.15-1.67,5.14,5.14,0,0,1,3.66-1.52,5,5,0,0,1,3.59,1.52,5.61,5.61,0,0,1,1.09,1.67,5.12,5.12,0,0,1,.4,2Z"/><path class="cls-4" d="M579.2,764.59a21.74,21.74,0,0,1,1.8-8.82,23.5,23.5,0,0,1,4.9-7.2,23.1,23.1,0,0,1,7.2-4.88,21.84,21.84,0,0,1,8.78-1.78,22.1,22.1,0,0,1,8.84,1.78,22.64,22.64,0,0,1,7.2,4.88,23.13,23.13,0,0,1,4.83,7.2,22.9,22.9,0,0,1,0,17.61,23,23,0,0,1-4.83,7.23,22.62,22.62,0,0,1-7.2,4.87,22.1,22.1,0,0,1-8.84,1.79,21.85,21.85,0,0,1-8.78-1.79,23.07,23.07,0,0,1-7.2-4.87,23.4,23.4,0,0,1-4.9-7.23A21.74,21.74,0,0,1,579.2,764.59Zm10.31,0a12,12,0,0,0,1,4.78,12.62,12.62,0,0,0,2.66,3.94,12.43,12.43,0,0,0,3.92,2.66,12.32,12.32,0,0,0,9.63,0,12,12,0,0,0,3.92-2.66,12.51,12.51,0,0,0,2.62-3.94,12.28,12.28,0,0,0,1-4.78,12.24,12.24,0,0,0-7.49-11.39,12.36,12.36,0,0,0-9.6,0,12.79,12.79,0,0,0-4,2.64,12.42,12.42,0,0,0-2.66,3.92A12.09,12.09,0,0,0,589.51,764.59Z"/><path class="cls-4" d="M641.05,781.61a5.43,5.43,0,0,1-.38,2,4.5,4.5,0,0,1-1.07,1.61,5.42,5.42,0,0,1-1.59,1.07,4.77,4.77,0,0,1-2,.41,5.35,5.35,0,0,1-2.07-.41,5.53,5.53,0,0,1-1.69-1.07,5.1,5.1,0,0,1-1.14-1.61,4.93,4.93,0,0,1-.43-2V766.25a22.93,22.93,0,0,1,1.88-9.22,24,24,0,0,1,12.67-12.67,22.81,22.81,0,0,1,9.18-1.88h.09a5.25,5.25,0,0,1,4,1.45,5.08,5.08,0,0,1,1.4,3.69,5,5,0,0,1-.42,2,5.22,5.22,0,0,1-1.17,1.64,5.43,5.43,0,0,1-1.71,1.09,5.35,5.35,0,0,1-2.07.41h-.09a13.11,13.11,0,0,0-5.16,1A13.47,13.47,0,0,0,645,756.7a14.14,14.14,0,0,0-2.9,4.23,12.4,12.4,0,0,0-1.09,5.18Z"/><path class="cls-4" d="M675.9,768.11c-1.37-.57-2.78-1.21-4.23-1.9a19.44,19.44,0,0,1-4-2.55,12.91,12.91,0,0,1-3-3.56,10,10,0,0,1-1.16-5A12.05,12.05,0,0,1,668,745.5a15,15,0,0,1,5-2.66,20.82,20.82,0,0,1,6.37-.93,28.37,28.37,0,0,1,4.14.31,21.25,21.25,0,0,1,4.07,1,13.24,13.24,0,0,1,3.44,1.81,7.62,7.62,0,0,1,2.33,2.68,5.24,5.24,0,0,1,.5,3,4.52,4.52,0,0,1-1.07,2.45,4.91,4.91,0,0,1-1.54,1.19,4.34,4.34,0,0,1-1.88.42,4.25,4.25,0,0,1-1.67-.38c-.66-.41-1.27-.77-1.83-1.09a12.14,12.14,0,0,0-1.71-.81,10.68,10.68,0,0,0-1.85-.5,13.4,13.4,0,0,0-2.21-.16,10.53,10.53,0,0,0-4.69.83,2.7,2.7,0,0,0-1.59,2.54,2,2,0,0,0,.6,1.5,5.5,5.5,0,0,0,1.61,1.07,16.93,16.93,0,0,0,2.48.9l3.16.95a45,45,0,0,1,5.34,2,18.48,18.48,0,0,1,4.47,2.78,12.65,12.65,0,0,1,3.07,3.85,11.45,11.45,0,0,1,1.14,5.3,12,12,0,0,1-1.21,5.35,13.51,13.51,0,0,1-3.35,4.35,16.09,16.09,0,0,1-5.09,2.93,18.93,18.93,0,0,1-6.47,1.07,28.47,28.47,0,0,1-4.63-.41,21.06,21.06,0,0,1-4.76-1.38A18.4,18.4,0,0,1,666,783a11.69,11.69,0,0,1-3.14-3.82,6.17,6.17,0,0,1-.85-2.93,4.65,4.65,0,0,1,.59-2.38,4.17,4.17,0,0,1,1.66-1.59,5,5,0,0,1,2.36-.57,6.44,6.44,0,0,1,2.38.5,9,9,0,0,1,2.47,1.59,7.71,7.71,0,0,0,1.42,1.36,11.12,11.12,0,0,0,1.9,1.14A11.58,11.58,0,0,0,677,777a11.13,11.13,0,0,0,2.55.29,9.4,9.4,0,0,0,2.23-.26,7.09,7.09,0,0,0,1.86-.74,4.31,4.31,0,0,0,1.28-1.14,2.52,2.52,0,0,0,.47-1.52,2.32,2.32,0,0,0-1-1.83,13.46,13.46,0,0,0-2.54-1.55,30.23,30.23,0,0,0-3.14-1.26Z"/></g></svg>